<svg width="358" height="448" viewBox="0 0 358 448" fill="none" xmlns="http://www.w3.org/2000/svg">
<rect y="277" width="358" height="171" rx="32" fill="#C9CCF3"/>
<rect x="188" y="16" width="86" height="124" rx="43" fill="#C9CCF3"/>
<rect x="3.5" y="184.5" width="79" height="159" rx="39.5" fill="#C9CCF3"/>
<rect x="3.5" y="184.5" width="79" height="159" rx="39.5" stroke="white" stroke-width="7"/>
<rect x="97.5" y="254.5" width="173" height="71" rx="35.5" fill="#C9CCF3"/>
<rect x="97.5" y="254.5" width="173" height="71" rx="35.5" stroke="white" stroke-width="7"/>
<rect x="285.5" y="254.5" width="69" height="117" rx="34.5" fill="#C9CCF3"/>
<rect x="285.5" y="254.5" width="69" height="117" rx="34.5" stroke="white" stroke-width="7"/>
<rect x="188" y="148" width="86" height="95" rx="43" fill="#C9CCF3"/>
<rect x="282" y="16" width="76" height="227" rx="38" fill="#C9CCF3"/>
<rect x="94" y="-37" width="86" height="280" rx="43" fill="#C9CCF3"/>
<rect y="-50" width="86" height="221" rx="43" fill="#C9CCF3"/>
</svg>
